<svg xmlns="http://www.w3.org/2000/svg" xmlns:xlink="http://www.w3.org/1999/xlink"><symbol fill="none" viewBox="0 0 24 24" id="bell" xmlns="http://www.w3.org/2000/svg"><path d="M10.759 2.75h2.482a5.009 5.009 0 0 1 5.009 5.009v5.326c0 1.614.348 3.204 1.012 4.665H4.738a11.275 11.275 0 0 0 1.012-4.665V7.759a5.009 5.009 0 0 1 5.009-5.009Z" stroke="currentColor" stroke-width="1.5" stroke-linejoin="round"/><path d="M9 19h6a2.5 2.5 0 0 1-2.5 2.5h-1A2.5 2.5 0 0 1 9 19Z" fill="currentColor"/></symbol><symbol fill="none" viewBox="0 0 16 16" id="caret-closed" xmlns="http://www.w3.org/2000/svg"><path d="M8 10 4.536 6.25h6.928L8 10Z" fill="currentColor"/></symbol><symbol fill="none" viewBox="0 0 16 16" id="caret-open" xmlns="http://www.w3.org/2000/svg"><path d="m8 6 3.464 3.75H4.536L8 6Z" fill="currentColor"/></symbol><symbol fill="none" viewBox="0 0 24 24" id="checkmark" xmlns="http://www.w3.org/2000/svg"><path d="m4 13.5 4.21 4.316c.098.1.26.1.358 0L20 6" stroke="currentColor" stroke-width="3" stroke-linecap="round"/></symbol><symbol fill="none" viewBox="0 0 20 20" id="error" xmlns="http://www.w3.org/2000/svg"><g clip-path="url(#ea)" stroke="currentColor"><circle cx="10" cy="10" r="9.5"/><path d="m5.5 5.5 9 9m-9 0 9-9" stroke-width="2"/></g><defs><clipPath id="ea"><path fill="currentColor" d="M0 0h20v20H0z"/></clipPath></defs></symbol><symbol fill="none" viewBox="0 0 32 32" id="hamburger" xmlns="http://www.w3.org/2000/svg"><path d="M8 10h16v2H8v-2ZM8 15h16v2H8v-2ZM8 20h16v2H8v-2Z" fill="currentColor"/></symbol><symbol fill="none" viewBox="0 0 24 24" id="homepage-grid" xmlns="http://www.w3.org/2000/svg"><path stroke="currentColor" d="M6.5 6.5h4v4h-4zM13.5 6.5h4v4h-4zM13.5 13.5h4v4h-4zM6.5 13.5h4v4h-4z"/></symbol><symbol fill="currentColor" viewBox="0 0 24 24" id="homepage-list" xmlns="http://www.w3.org/2000/svg"><path d="M4 6h16v2H4zM4 11h16v2H4zM4 16h16v2H4z"/></symbol><symbol fill="none" viewBox="0 0 24 24" id="homepage-wavelet" xmlns="http://www.w3.org/2000/svg"><path d="m2 12.663.08-.19c1.031-2.448 2.725-2.266 3.658.394l.46 1.31c1.137 3.24 3.347 1.946 3.72-2.179.48-5.33 3.684-5.33 4.165 0 .372 4.125 2.582 5.419 3.72 2.178l.459-1.31c.933-2.659 2.627-2.841 3.658-.393l.08.19" stroke="currentColor"/></symbol><symbol fill="none" viewBox="0 0 16 16" id="image" xmlns="http://www.w3.org/2000/svg"><g clip-path="url(#ja)" stroke="currentColor"><circle cx="10.5" cy="6.5" r="1"/><path d="M2.594 11.717 4.807 9c.295-.362.442-.543.646-.565.205-.022.387.123.752.414l1.72 1.369c.256.203.383.305.536.317.152.012.294-.068.579-.23l.814-.46c.297-.168.446-.252.604-.236.158.016.287.129.545.353l2.418 2.105"/></g><rect x="2.5" y="3.5" width="11" height="9" rx="1" stroke="currentColor"/><defs><clipPath id="ja"><rect x="3" y="4" width="10" height="8" rx=".5" fill="currentColor"/></clipPath></defs></symbol><symbol fill="none" viewBox="0 0 20 20" id="info" xmlns="http://www.w3.org/2000/svg"><g clip-path="url(#ka)"><circle cx="10" cy="10" r="9.5" stroke="currentColor"/><path fill="currentColor" d="M9 4h2v2H9zM9 7h2v8h1v1H8v-1h1V8H8V7h1Z"/></g><defs><clipPath id="ka"><path fill="currentColor" d="M0 0h20v20H0z"/></clipPath></defs></symbol><symbol fill="none" viewBox="0 0 32 32" id="mail" xmlns="http://www.w3.org/2000/svg"><path d="M2 5.5h28A1.5 1.5 0 0 1 31.5 7v18a1.5 1.5 0 0 1-1.5 1.5H2A1.5 1.5 0 0 1 .5 25V7A1.5 1.5 0 0 1 2 5.5Z" stroke="currentColor"/><path d="m.25 8 14.985 9.965c.46.321 1.07.321 1.53 0L31.5 8M.5 22.5l10.5-7m20.5 7-10.5-7" stroke="currentColor"/></symbol><symbol fill="none" viewBox="0 0 16 16" id="next" xmlns="http://www.w3.org/2000/svg"><path d="m12 8-6 4.33V3.67L12 8Z" fill="currentColor"/></symbol><symbol fill="none" viewBox="0 0 16 16" id="placeholder" xmlns="http://www.w3.org/2000/svg"><g clip-path="url(#na)"><circle cx="8" cy="8" r="8" fill="#F80"/><circle cx="8" cy="8" r="5" fill="#fff"/></g><defs><clipPath id="na"><path fill="#fff" d="M0 0h16v16H0z"/></clipPath></defs></symbol><symbol fill="none" viewBox="0 0 24 24" id="plus" xmlns="http://www.w3.org/2000/svg"><path d="M12 3v18m-9-9h18" stroke="currentColor" stroke-width="2"/></symbol><symbol fill="none" viewBox="0 0 16 16" id="previous" xmlns="http://www.w3.org/2000/svg"><path d="m4 8 6-4.33v8.66L4 8Z" fill="currentColor"/></symbol><symbol fill="none" viewBox="0 0 16 16" id="search" xmlns="http://www.w3.org/2000/svg"><circle cx="6.5" cy="6.5" r="5" stroke="currentColor"/><path d="m10 10 5 5" stroke="currentColor"/></symbol><symbol fill="currentColor" viewBox="0 0 24 24" id="staff" xmlns="http://www.w3.org/2000/svg"><path d="M3.162 4.3a.773.773 0 0 1 1.054-.814 6.18 6.18 0 0 0 6.666-1.368l.48-.48a.901.901 0 0 1 1.275 0l.481.48a6.18 6.18 0 0 0 6.666 1.368.773.773 0 0 1 1.054.814l-1.404 11.227a7 7 0 0 1-3.473 5.21l-1.976 1.129a4 4 0 0 1-3.97 0l-1.976-1.13a7 7 0 0 1-3.473-5.209L3.162 4.3Z"/></symbol><symbol viewBox="0 0 32 32" id="star" xmlns="http://www.w3.org/2000/svg"><path d="m16 1 3.762 10.822 11.455.234-9.13 6.922 3.318 10.966L16 23.4l-9.405 6.544 3.318-10.966-9.13-6.922 11.455-.234L16 1Z"/></symbol><symbol fill="none" viewBox="0 0 20 20" id="success" xmlns="http://www.w3.org/2000/svg"><g clip-path="url(#ta)" stroke="currentColor"><circle cx="10" cy="10" r="9.5"/><path d="m5 10 3.5 3.5L15 6" stroke-width="2"/></g><defs><clipPath id="ta"><path fill="currentColor" d="M0 0h20v20H0z"/></clipPath></defs></symbol><symbol fill="none" viewBox="0 0 16 16" id="three-dots" xmlns="http://www.w3.org/2000/svg"><circle cx="8" cy="3" r="1.5" fill="currentColor"/><circle cx="8" cy="13" r="1.5" fill="currentColor"/><circle cx="8" cy="8" r="1.5" fill="currentColor"/></symbol><symbol fill="none" viewBox="0 0 24 24" id="upload" xmlns="http://www.w3.org/2000/svg"><path d="M21.5 8.75c0 1.854 0 3.282-.078 4.429-.079 1.153-.24 2.078-.588 2.92a8.75 8.75 0 0 1-4.735 4.735c-.842.349-1.767.51-2.92.588-1.147.078-2.575.078-4.429.078H2.5V20h6.25c1.874 0 3.242 0 4.326-.074 1.078-.074 1.82-.217 2.448-.478a7.25 7.25 0 0 0 3.924-3.924c.26-.628.404-1.37.478-2.448C20 11.992 20 10.624 20 8.75V2.5h1.5v6.25ZM14 4H5.06l9.22 9.22a.75.75 0 1 1-1.06 1.06L4 5.06V14H2.5V2.5H14V4Z" fill="currentColor"/></symbol><symbol fill="currentColor" viewBox="0 0 16 16" id="video" xmlns="http://www.w3.org/2000/svg"><path d="M12.082 7.66c.245.153.368.229.368.34 0 .111-.122.187-.368.34l-6.525 4.053c-.27.168-.406.252-.508.194-.103-.057-.103-.216-.103-.534V3.947c0-.318 0-.477.103-.534.102-.058.238.026.508.194l6.525 4.053Z"/></symbol><symbol fill="none" viewBox="0 0 20 20" id="warning" xmlns="http://www.w3.org/2000/svg"><path fill="#000" d="M9 7h2v7H9zM9 15h2v2H9z"/><path d="M19.15 18.5H.85L10 2.03l9.15 16.47Z" stroke="#000"/></symbol></svg>