<svg xmlns="http://www.w3.org/2000/svg" xmlns:xlink="http://www.w3.org/1999/xlink"><symbol fill="none" viewBox="0 0 20 20" id="namebanner-danger" xmlns="http://www.w3.org/2000/svg"><g clip-path="url(#aaa)"><circle cx="10" cy="10" r="9.5" stroke="#fff"/><path d="M5.91 7.727A1.286 1.286 0 1 1 7.726 5.91l6.364 6.364a1.286 1.286 0 1 1-1.818 1.818L5.909 7.727Z" fill="#fff"/><path d="M12.273 5.91a1.286 1.286 0 0 1 1.818 1.817l-6.364 6.364a1.286 1.286 0 1 1-1.818-1.818l6.364-6.364Z" fill="#fff"/></g><defs><clipPath id="aaa"><path fill="#fff" d="M0 0h20v20H0z"/></clipPath></defs></symbol><symbol fill="none" viewBox="0 0 20 20" id="namebanner-primary" xmlns="http://www.w3.org/2000/svg"><g clip-path="url(#aba)"><circle cx="10" cy="10" r="9.5" stroke="#fff"/><rect x="9" y="4" width="2" height="2" rx=".5" fill="#fff"/><path d="M9 7h1.75a.25.25 0 0 1 .25.25v7.5c0 .138.112.25.25.25h.5a.25.25 0 0 1 .25.25v.5a.25.25 0 0 1-.25.25h-3.5a.25.25 0 0 1-.25-.25v-.5a.25.25 0 0 1 .25-.25h.5a.25.25 0 0 0 .25-.25v-6a.25.25 0 0 0-.25-.25h-.5A.25.25 0 0 1 8 8.25v-1A.25.25 0 0 1 8.25 7H9Z" fill="#fff"/></g><defs><clipPath id="aba"><path fill="#fff" d="M0 0h20v20H0z"/></clipPath></defs></symbol><symbol fill="none" viewBox="0 0 20 20" id="namebanner-secondary" xmlns="http://www.w3.org/2000/svg"><g clip-path="url(#aca)"><circle cx="10" cy="10" r="9.5" stroke="#000"/><rect x="9" y="4" width="2" height="2" rx=".5" fill="#000"/><path d="M9 7h1.75a.25.25 0 0 1 .25.25v7.5c0 .138.112.25.25.25h.5a.25.25 0 0 1 .25.25v.5a.25.25 0 0 1-.25.25h-3.5a.25.25 0 0 1-.25-.25v-.5a.25.25 0 0 1 .25-.25h.5a.25.25 0 0 0 .25-.25v-6a.25.25 0 0 0-.25-.25h-.5A.25.25 0 0 1 8 8.25v-1A.25.25 0 0 1 8.25 7H9Z" fill="#000"/></g><defs><clipPath id="aca"><path fill="#fff" d="M0 0h20v20H0z"/></clipPath></defs></symbol><symbol fill="none" viewBox="0 0 20 20" id="namebanner-success" xmlns="http://www.w3.org/2000/svg"><g clip-path="url(#ada)"><circle cx="10" cy="10" r="9.5" stroke="#fff"/><path d="M13.648 5.91a1.286 1.286 0 0 1 1.819 1.817l-6.364 6.364a1.286 1.286 0 1 1-1.818-1.818l6.363-6.364Z" fill="#fff"/><path d="M9.107 12.273a1.286 1.286 0 0 1-1.818 1.818l-2.38-2.38a1.286 1.286 0 0 1 1.818-1.818l2.38 2.38Z" fill="#fff"/></g><defs><clipPath id="ada"><path fill="#fff" d="M0 0h20v20H0z"/></clipPath></defs></symbol><symbol fill="none" viewBox="0 0 20 20" id="namebanner-warning" xmlns="http://www.w3.org/2000/svg"><path fill="#000" d="M9 7h2v7H9zM9 15h2v2H9z"/><path d="m10.437 2.816 8.3 14.941a.5.5 0 0 1-.436.743H1.7a.5.5 0 0 1-.438-.743l8.3-14.94a.5.5 0 0 1 .875 0Z" stroke="#000"/></symbol><symbol fill="none" viewBox="0 0 24 24" id="namebell-dark" xmlns="http://www.w3.org/2000/svg"><path d="M12.8 20.4a.8.8 0 0 1 0 1.6h-1.6a.8.8 0 0 1 0-1.6h1.6Z" fill="#fff"/><path fill-rule="evenodd" clip-rule="evenodd" d="M12 2a6.4 6.4 0 0 1 6.4 6.4v7.836l.013.066c.024.06.082.102.151.106A1.6 1.6 0 0 1 18.4 19.6H5.6a1.6 1.6 0 0 1-.164-3.192.173.173 0 0 0 .152-.106l.012-.066V8.4A6.4 6.4 0 0 1 12 2Zm0 1.6a4.8 4.8 0 0 0-4.8 4.8v7.836c0 .917-.7 1.675-1.603 1.76l.001.004h12.804v-.003a1.77 1.77 0 0 1-1.602-1.761V8.4A4.8 4.8 0 0 0 12 3.6Z" fill="#fff"/></symbol><symbol fill="none" viewBox="0 0 24 24" id="namebell-light" xmlns="http://www.w3.org/2000/svg"><path d="M12.8 20.4a.8.8 0 0 1 0 1.6h-1.6a.8.8 0 0 1 0-1.6h1.6Z" fill="#000"/><path fill-rule="evenodd" clip-rule="evenodd" d="M12 2a6.4 6.4 0 0 1 6.4 6.4v7.836l.013.066c.024.06.082.102.151.106A1.6 1.6 0 0 1 18.4 19.6H5.6a1.6 1.6 0 0 1-.164-3.192.173.173 0 0 0 .152-.106l.012-.066V8.4A6.4 6.4 0 0 1 12 2Zm0 1.6a4.8 4.8 0 0 0-4.8 4.8v7.836c0 .917-.7 1.675-1.603 1.76l.001.004h12.804v-.003a1.77 1.77 0 0 1-1.602-1.761V8.4A4.8 4.8 0 0 0 12 3.6Z" fill="#000"/></symbol><symbol fill="none" viewBox="0 0 16 16" id="namecaret-closed-dark" xmlns="http://www.w3.org/2000/svg"><path d="M8 10 4.536 6.25h6.928L8 10Z" fill="#fff"/></symbol><symbol fill="none" viewBox="0 0 16 16" id="namecaret-closed-light" xmlns="http://www.w3.org/2000/svg"><path d="M8 10 4.536 6.25h6.928L8 10Z" fill="#000"/></symbol><symbol fill="none" viewBox="0 0 16 16" id="namecaret-open-dark" xmlns="http://www.w3.org/2000/svg"><path d="m8 6 3.464 3.75H4.536L8 6Z" fill="#fff"/></symbol><symbol fill="none" viewBox="0 0 16 16" id="namecaret-open-light" xmlns="http://www.w3.org/2000/svg"><path d="m8 6 3.464 3.75H4.536L8 6Z" fill="#000"/></symbol><symbol fill="none" viewBox="0 0 32 32" id="namehamburger-dark" xmlns="http://www.w3.org/2000/svg"><rect x="8" y="9" width="16" height="2" rx=".5" fill="#fff"/><rect x="8" y="15" width="16" height="2" rx=".5" fill="#fff"/><rect x="8" y="21" width="16" height="2" rx=".5" fill="#fff"/></symbol><symbol fill="none" viewBox="0 0 32 32" id="namehamburger-light" xmlns="http://www.w3.org/2000/svg"><rect x="8" y="9" width="16" height="2" rx=".5" fill="#000"/><rect x="8" y="15" width="16" height="2" rx=".5" fill="#000"/><rect x="8" y="21" width="16" height="2" rx=".5" fill="#000"/></symbol><symbol fill="none" viewBox="0 0 24 24" id="namehomepage-grid-dark" xmlns="http://www.w3.org/2000/svg"><path stroke="#fff" d="M6.5 6.5h4v4h-4zM13.5 6.5h4v4h-4zM13.5 13.5h4v4h-4zM6.5 13.5h4v4h-4z"/></symbol><symbol fill="none" viewBox="0 0 24 24" id="namehomepage-grid-light" xmlns="http://www.w3.org/2000/svg"><path stroke="#27272C" d="M6.5 6.5h4v4h-4zM13.5 6.5h4v4h-4zM13.5 13.5h4v4h-4zM6.5 13.5h4v4h-4z"/></symbol><symbol fill="none" viewBox="0 0 24 24" id="namehomepage-list-dark" xmlns="http://www.w3.org/2000/svg"><path fill="#fff" d="M4 6h16v2H4zM4 11h16v2H4zM4 16h16v2H4z"/></symbol><symbol fill="none" viewBox="0 0 24 24" id="namehomepage-list-light" xmlns="http://www.w3.org/2000/svg"><path fill="#27272C" d="M4 6h16v2H4zM4 11h16v2H4zM4 16h16v2H4z"/></symbol><symbol fill="none" viewBox="0 0 16 16" id="nameimage" xmlns="http://www.w3.org/2000/svg"><g clip-path="url(#ara)" stroke="#fff"><circle cx="10.5" cy="6.5" r="1"/><path d="M2.594 11.717 4.807 9c.295-.362.442-.543.646-.565.205-.022.387.123.752.414l1.72 1.369c.256.203.383.305.536.317.152.012.294-.068.579-.23l.814-.46c.297-.168.446-.252.604-.236.158.016.287.129.545.353l2.418 2.105"/></g><rect x="2.5" y="3.5" width="11" height="9" rx="1" stroke="#fff"/><defs><clipPath id="ara"><rect x="3" y="4" width="10" height="8" rx=".5" fill="#fff"/></clipPath></defs></symbol><symbol fill="none" viewBox="0 0 32 32" id="namemail-dark" xmlns="http://www.w3.org/2000/svg"><rect x=".667" y="6" width="30.667" height="20" rx="1.333" stroke="#fff" stroke-width="1.333"/><path d="m1 8 14.235 9.965c.46.321 1.07.321 1.53 0L31 8M.5 22.5l10.5-7m20.5 7-10.5-7" stroke="#fff" stroke-width="1.333"/></symbol><symbol fill="none" viewBox="0 0 32 32" id="namemail-light" xmlns="http://www.w3.org/2000/svg"><rect x=".667" y="6" width="30.667" height="20" rx="1.333" stroke="#000" stroke-width="1.333"/><path d="m1 8 14.235 9.965c.46.321 1.07.321 1.53 0L31 8M.5 22.5l10.5-7m20.5 7-10.5-7" stroke="#000" stroke-width="1.333"/></symbol><symbol fill="none" viewBox="0 0 16 16" id="namenext-light" xmlns="http://www.w3.org/2000/svg"><path d="m12 8-6 4.33V3.67L12 8Z" fill="#000"/></symbol><symbol fill="none" viewBox="0 0 24 24" id="namepartner" xmlns="http://www.w3.org/2000/svg"><path d="m4 13.5 4.21 4.316c.098.1.26.1.358 0L20 6" stroke="#0069B4" stroke-width="3" stroke-linecap="round"/></symbol><symbol fill="none" viewBox="0 0 32 32" id="nameplaceholder" xmlns="http://www.w3.org/2000/svg"><g clip-path="url(#awa)"><circle cx="16" cy="16" r="16" fill="#F90"/><circle cx="16" cy="16" r="10" fill="#fff"/></g><defs><clipPath id="awa"><path fill="#fff" d="M0 0h32v32H0z"/></clipPath></defs></symbol><symbol fill="none" viewBox="0 0 24 24" id="nameplus-dark" xmlns="http://www.w3.org/2000/svg"><path fill-rule="evenodd" clip-rule="evenodd" d="M12 4a1 1 0 0 0-1 1v6H5a1 1 0 1 0 0 2h6v6a1 1 0 1 0 2 0v-6h6a1 1 0 1 0 0-2h-6V5a1 1 0 0 0-1-1Z" fill="#fff"/></symbol><symbol fill="none" viewBox="0 0 24 24" id="nameplus-light" xmlns="http://www.w3.org/2000/svg"><path fill-rule="evenodd" clip-rule="evenodd" d="M12 4a1 1 0 0 0-1 1v6H5a1 1 0 1 0 0 2h6v6a1 1 0 1 0 2 0v-6h6a1 1 0 1 0 0-2h-6V5a1 1 0 0 0-1-1Z" fill="#000"/></symbol><symbol fill="none" viewBox="0 0 16 16" id="nameprevious-light" xmlns="http://www.w3.org/2000/svg"><path d="m4 8 6-4.33v8.66L4 8Z" fill="#000"/></symbol><symbol fill="none" viewBox="0 0 30 30" id="namesearch-dark" xmlns="http://www.w3.org/2000/svg"><circle cx="11.5" cy="11.5" r="9.5" stroke="#fff" stroke-width="2"/><path d="M27.32 28.733a1 1 0 1 0 1.36-1.466l-1.36 1.466Zm-10.045-9.309 10.045 9.31 1.36-1.467-10.045-9.31-1.36 1.467Z" fill="#fff"/></symbol><symbol fill="none" viewBox="0 0 30 30" id="namesearch-light" xmlns="http://www.w3.org/2000/svg"><circle cx="11.5" cy="11.5" r="9.5" stroke="#111" stroke-width="2"/><path d="M27.32 28.733a1 1 0 1 0 1.36-1.466l-1.36 1.466Zm-10.045-9.309 10.045 9.31 1.36-1.467-10.045-9.31-1.36 1.467Z" fill="#111"/></symbol><symbol fill="none" viewBox="0 0 24 24" id="namestaff" xmlns="http://www.w3.org/2000/svg"><path d="M3.162 4.3a.773.773 0 0 1 1.054-.814 6.18 6.18 0 0 0 6.666-1.368l.48-.48a.901.901 0 0 1 1.275 0l.481.48a6.18 6.18 0 0 0 6.666 1.368.773.773 0 0 1 1.054.814l-1.404 11.227a7 7 0 0 1-3.473 5.21l-1.976 1.129a4 4 0 0 1-3.97 0l-1.976-1.13a7 7 0 0 1-3.473-5.209L3.162 4.3Z" fill="#0069B4"/></symbol><symbol fill="none" viewBox="0 0 32 32" id="namestar_empty" xmlns="http://www.w3.org/2000/svg"><g clip-path="url(#bda)"><path d="M15.339 2.902c.218-.627 1.104-.627 1.322 0l2.94 8.46a.7.7 0 0 0 .648.47l8.954.183c.664.013.938.856.41 1.257l-7.138 5.411a.7.7 0 0 0-.247.76l2.593 8.574c.193.635-.525 1.156-1.07.777L16.4 23.678a.7.7 0 0 0-.8 0l-7.352 5.116c-.544.38-1.262-.142-1.07-.777l2.594-8.573a.7.7 0 0 0-.247-.76l-7.137-5.412c-.529-.4-.255-1.244.408-1.257l8.955-.183a.7.7 0 0 0 .647-.47l2.94-8.46Z" fill="#E6E6E6"/></g><defs><clipPath id="bda"><path fill="#fff" d="M0 0h32v32H0z"/></clipPath></defs></symbol><symbol fill="none" viewBox="0 0 32 32" id="namestar_full" xmlns="http://www.w3.org/2000/svg"><g clip-path="url(#bea)"><path d="M15.339 2.902c.218-.627 1.104-.627 1.322 0l2.94 8.46a.7.7 0 0 0 .648.47l8.954.183c.664.013.938.856.41 1.257l-7.138 5.411a.7.7 0 0 0-.247.76l2.593 8.574c.193.635-.525 1.156-1.07.777L16.4 23.678a.7.7 0 0 0-.8 0l-7.352 5.116c-.544.38-1.262-.142-1.07-.777l2.594-8.573a.7.7 0 0 0-.247-.76l-7.137-5.412c-.529-.4-.255-1.244.408-1.257l8.955-.183a.7.7 0 0 0 .647-.47l2.94-8.46Z" fill="#FB0"/></g><defs><clipPath id="bea"><path fill="#fff" d="M0 0h32v32H0z"/></clipPath></defs></symbol><symbol fill="none" viewBox="0 0 32 32" id="namestar_half" xmlns="http://www.w3.org/2000/svg"><g clip-path="url(#bfa)"><path d="M15.339 2.902c.218-.627 1.104-.627 1.322 0l2.94 8.46a.7.7 0 0 0 .648.47l8.954.183c.664.013.938.856.41 1.257l-7.138 5.411a.7.7 0 0 0-.247.76l2.593 8.574c.193.635-.525 1.156-1.07.777L16.4 23.678a.7.7 0 0 0-.8 0l-7.352 5.116c-.544.38-1.262-.142-1.07-.777l2.594-8.573a.7.7 0 0 0-.247-.76l-7.137-5.412c-.529-.4-.255-1.244.408-1.257l8.955-.183a.7.7 0 0 0 .647-.47l2.94-8.46Z" fill="#E6E6E6"/><path fill-rule="evenodd" clip-rule="evenodd" d="M16 2.432v21.12a.7.7 0 0 0-.4.126l-7.352 5.116c-.544.38-1.262-.142-1.07-.777l2.594-8.573a.7.7 0 0 0-.247-.76l-7.137-5.412c-.529-.4-.255-1.244.408-1.257l8.955-.183a.7.7 0 0 0 .647-.47l2.94-8.46a.688.688 0 0 1 .662-.47Z" fill="#FB0"/></g><defs><clipPath id="bfa"><path fill="#fff" d="M0 0h32v32H0z"/></clipPath></defs></symbol><symbol fill="none" viewBox="0 0 24 24" id="nameupload-dark" xmlns="http://www.w3.org/2000/svg"><path d="M19.6 12.4V3.6a.8.8 0 0 1 1.6 0v8.8a8.8 8.8 0 0 1-8.8 8.8H3.6a.8.8 0 0 1 0-1.6h8.8a7.2 7.2 0 0 0 7.2-7.2Z" fill="#fff"/><path d="M13.434 14.566 4.945 6.077v5.56a.8.8 0 1 1-1.6 0V4.146l.016-.157a.8.8 0 0 1 .784-.643h7.491l.162.015a.8.8 0 0 1 0 1.568l-.162.017h-5.56l8.49 8.488a.8.8 0 0 1-1.132 1.132Z" fill="#fff"/></symbol><symbol fill="none" viewBox="0 0 24 24" id="nameupload-light" xmlns="http://www.w3.org/2000/svg"><path d="M19.6 12.4V3.6a.8.8 0 0 1 1.6 0v8.8a8.8 8.8 0 0 1-8.8 8.8H3.6a.8.8 0 0 1 0-1.6h8.8a7.2 7.2 0 0 0 7.2-7.2Z" fill="#000"/><path d="M13.434 14.566 4.945 6.077v5.56a.8.8 0 1 1-1.6 0V4.146l.016-.157a.8.8 0 0 1 .784-.643h7.491l.162.015a.8.8 0 0 1 0 1.568l-.162.017h-5.56l8.49 8.488a.8.8 0 0 1-1.132 1.132Z" fill="#000"/></symbol><symbol fill="none" viewBox="0 0 16 16" id="namevideo" xmlns="http://www.w3.org/2000/svg"><path d="M12.082 7.66c.245.153.368.229.368.34 0 .111-.122.187-.368.34l-6.525 4.053c-.27.168-.406.252-.508.194-.103-.057-.103-.216-.103-.534V3.947c0-.318 0-.477.103-.534.102-.058.238.026.508.194l6.525 4.053Z" fill="#fff"/></symbol></svg>