<svg width="1213" height="279" viewBox="0 0 1213 279" fill="none" xmlns="http://www.w3.org/2000/svg">
<g clip-path="url(#clip0_300_325)">
<path d="M404.377 228.111C386.919 228.111 371.449 224.136 357.967 216.185C344.484 208.233 333.94 197.171 326.335 182.997C318.729 168.823 314.927 152.575 314.927 134.253C314.927 115.758 318.643 99.5099 326.076 85.5089C333.681 71.3351 344.139 60.2726 357.448 52.3214C370.758 44.3703 386.142 40.3947 403.6 40.3947C421.058 40.3947 436.441 44.4567 449.751 52.5807C463.233 60.5319 473.691 71.5944 481.123 85.7682C488.556 99.7692 492.272 115.931 492.272 134.253C492.272 152.575 488.556 168.823 481.123 182.997C473.691 197.171 463.32 208.233 450.01 216.185C436.873 224.136 421.662 228.111 404.377 228.111ZM404.377 208.147C417.341 208.147 428.749 205.036 438.602 198.813C448.454 192.418 456.146 183.689 461.678 172.626C467.382 161.564 470.234 148.773 470.234 134.253C470.234 119.906 467.382 107.202 461.678 96.1393C455.974 84.9039 448.109 76.1749 438.083 69.9523C428.231 63.5568 416.736 60.359 403.6 60.359C390.636 60.359 379.141 63.5568 369.116 69.9523C359.09 76.1749 351.226 84.9039 345.521 96.1393C339.817 107.202 336.965 119.906 336.965 134.253C336.965 148.773 339.817 161.564 345.521 172.626C351.226 183.689 359.177 192.418 369.375 198.813C379.573 205.036 391.241 208.147 404.377 208.147ZM515.962 276.855V95.3615H535.407L536.704 119.215V276.855H515.962ZM580.522 228.111C569.632 228.111 560.039 225.259 551.742 219.555C543.618 213.851 537.309 205.9 532.815 195.702C528.321 185.331 526.074 173.49 526.074 160.181C526.074 146.698 528.321 134.858 532.815 124.66C537.309 114.462 543.618 106.51 551.742 100.806C560.039 95.1022 569.632 92.2501 580.522 92.2501C592.103 92.2501 602.301 95.1022 611.116 100.806C619.932 106.51 626.759 114.462 631.599 124.66C636.612 134.858 639.118 146.698 639.118 160.181C639.118 173.49 636.612 185.331 631.599 195.702C626.759 205.9 619.932 213.851 611.116 219.555C602.301 225.259 592.103 228.111 580.522 228.111ZM575.855 209.184C583.979 209.184 591.152 207.11 597.375 202.961C603.77 198.813 608.783 193.022 612.413 185.59C616.216 178.157 618.117 169.688 618.117 160.181C618.117 150.674 616.302 142.204 612.672 134.772C609.215 127.339 604.289 121.548 597.893 117.4C591.498 113.252 584.238 111.177 576.114 111.177C568.509 111.177 561.681 113.252 555.631 117.4C549.754 121.548 545.087 127.339 541.63 134.772C538.346 142.204 536.704 150.674 536.704 160.181C536.704 169.688 538.346 178.157 541.63 185.59C545.087 193.022 549.754 198.813 555.631 202.961C561.508 207.11 568.249 209.184 575.855 209.184ZM716.855 228.111C704.237 228.111 693.088 225.259 683.408 219.555C673.728 213.678 666.123 205.641 660.592 195.442C655.233 185.244 652.554 173.49 652.554 160.181C652.554 146.871 655.233 135.117 660.592 124.919C666.123 114.721 673.642 106.77 683.149 101.066C692.829 95.1886 703.891 92.2501 716.336 92.2501C728.436 92.2501 738.893 95.275 747.709 101.325C756.524 107.202 763.352 115.499 768.192 126.215C773.032 136.932 775.451 149.55 775.451 164.07H668.37L673.556 159.662C673.556 170.033 675.371 178.935 679 186.368C682.803 193.8 688.075 199.504 694.816 203.48C701.558 207.283 709.249 209.184 717.892 209.184C727.053 209.184 734.745 207.023 740.968 202.702C747.363 198.381 752.289 192.677 755.746 185.59L773.637 194.665C770.352 201.406 765.945 207.283 760.413 212.295C755.055 217.308 748.66 221.197 741.227 223.963C733.967 226.729 725.843 228.111 716.855 228.111ZM674.852 150.847L669.407 146.698H758.858L753.413 151.106C753.413 142.809 751.771 135.636 748.487 129.586C745.202 123.536 740.795 118.869 735.264 115.585C729.732 112.301 723.337 110.659 716.077 110.659C708.99 110.659 702.249 112.301 695.853 115.585C689.631 118.869 684.532 123.536 680.556 129.586C676.753 135.463 674.852 142.55 674.852 150.847ZM793.834 225V95.3615H813.28L814.576 119.215V225H793.834ZM884.84 225V158.625H905.582V225H884.84ZM884.84 158.625C884.84 145.834 883.371 136.068 880.432 129.327C877.494 122.586 873.432 118.005 868.246 115.585C863.061 112.992 857.184 111.696 850.616 111.696C839.207 111.696 830.305 115.758 823.91 123.882C817.687 131.833 814.576 143.155 814.576 157.847H804.464C804.464 144.192 806.452 132.438 810.428 122.586C814.403 112.733 820.194 105.214 827.799 100.028C835.405 94.8429 844.566 92.2501 855.283 92.2501C865.481 92.2501 874.296 94.3243 881.729 98.4728C889.334 102.448 895.211 108.844 899.36 117.659C903.681 126.475 905.755 138.056 905.582 152.402V158.625H884.84ZM992.341 228.111C983.525 228.111 975.056 226.988 966.932 224.741C958.98 222.321 951.721 219.123 945.152 215.147C938.757 210.999 933.485 206.418 929.336 201.406C925.188 196.22 922.595 190.689 921.558 184.812L962.783 173.145C964.685 178.157 967.969 182.565 972.636 186.368C977.476 189.998 983.525 191.899 990.785 192.072C997.872 192.245 1003.75 190.603 1008.42 187.146C1013.26 183.689 1015.68 179.194 1015.68 173.663C1015.68 169.342 1013.95 165.539 1010.49 162.255C1007.21 158.971 1002.45 156.464 996.23 154.736L970.562 148.254C961.573 146.007 953.709 142.463 946.967 137.624C940.399 132.784 935.213 126.907 931.411 119.993C927.781 112.906 925.966 104.868 925.966 95.88C925.966 78.422 931.756 64.8532 943.337 55.1735C954.918 45.321 971.253 40.3947 992.341 40.3947C1003.92 40.3947 1014.03 42.0368 1022.68 45.321C1031.32 48.4323 1038.66 53.0993 1044.71 59.3219C1050.94 65.5446 1055.86 73.3229 1059.49 82.6569L1018.53 94.8429C1017.14 90.1759 1014.12 85.941 1009.45 82.1383C1004.96 78.3356 999.082 76.4342 991.822 76.4342C984.562 76.4342 978.858 78.0763 974.71 81.3605C970.734 84.6447 968.747 89.3981 968.747 95.6207C968.747 99.942 970.389 103.572 973.673 106.51C976.957 109.276 981.451 111.35 987.155 112.733L1012.82 119.215C1027.52 122.845 1038.92 129.672 1047.05 139.698C1055.35 149.55 1059.49 160.786 1059.49 173.404C1059.49 184.812 1056.81 194.578 1051.46 202.702C1046.27 210.826 1038.66 217.135 1028.64 221.629C1018.61 225.951 1006.51 228.111 992.341 228.111ZM1078.56 225V43.506H1142.08C1154.53 43.506 1165.5 45.4074 1175.01 49.2101C1184.52 53.0129 1191.95 58.8034 1197.31 66.5817C1202.67 74.36 1205.35 84.2125 1205.35 96.1393C1205.35 102.535 1203.62 108.585 1200.16 114.289C1196.88 119.82 1192.3 124.833 1186.42 129.327C1194.72 133.648 1201.03 139.352 1205.35 146.439C1209.84 153.353 1212.09 161.909 1212.09 172.107C1212.09 183.516 1209.5 193.195 1204.31 201.147C1199.12 208.925 1191.95 214.888 1182.79 219.037C1173.63 223.012 1162.91 225 1150.64 225H1078.56ZM1119.27 188.183H1145.97C1153.06 188.183 1158.68 186.368 1162.83 182.738C1166.97 178.935 1169.05 174.095 1169.05 168.218C1169.05 161.996 1166.89 157.156 1162.57 153.699C1158.25 150.069 1152.28 148.254 1144.68 148.254H1119.27V188.183ZM1119.27 114.807H1140.79C1147.36 114.807 1152.63 113.165 1156.6 109.881C1160.58 106.424 1162.57 101.671 1162.57 95.6207C1162.57 89.3981 1160.41 84.6447 1156.08 81.3605C1151.94 77.9035 1146.32 76.1749 1139.23 76.1749H1119.27V114.807Z" fill="currentColor"/>
<rect x="33.4609" y="31.9609" width="205.078" height="205.078" rx="26.3672" fill="#005290"/>
<rect x="136" y="-10.2266" width="204.674" height="204.674" rx="26.3672" transform="rotate(45 136 -10.2266)" fill="#0069B4"/>
</g>
</svg>
