<svg width="24" height="24" viewBox="0 0 24 24" fill="none" xmlns="http://www.w3.org/2000/svg">
<path d="M3.16244 4.29955C3.08947 3.71577 3.66975 3.2679 4.21599 3.4864V3.4864C6.51159 4.40464 9.13354 3.86646 10.8818 2.11818L11.3626 1.63743C11.7146 1.28539 12.2854 1.28539 12.6374 1.63743L13.1182 2.11819C14.8665 3.86646 17.4884 4.40464 19.784 3.4864V3.4864C20.3302 3.2679 20.9105 3.71577 20.8376 4.29955L19.4341 15.527C19.1608 17.7133 17.8741 19.6433 15.9611 20.7365L13.9846 21.866C12.7548 22.5687 11.2452 22.5687 10.0154 21.866L8.03885 20.7365C6.12585 19.6433 4.83916 17.7133 4.56588 15.527L3.16244 4.29955Z" fill="#0069B4"/>
</svg>
