<svg width="24" height="24" viewBox="0 0 24 24" fill="none" xmlns="http://www.w3.org/2000/svg">
<path d="M21.5 8.75C21.5 10.6035 21.5001 12.0316 21.4219 13.1787C21.3431 14.3323 21.1826 15.257 20.834 16.0986C19.9459 18.2425 18.2425 19.9459 16.0986 20.834C15.257 21.1826 14.3323 21.3431 13.1787 21.4219C12.0316 21.5001 10.6035 21.5 8.75 21.5H2.5V20H8.75C10.624 20 11.992 19.9998 13.0762 19.9258C14.1536 19.8523 14.896 19.7085 15.5244 19.4482C17.3009 18.7124 18.7124 17.3009 19.4482 15.5244C19.7085 14.896 19.8523 14.1536 19.9258 13.0762C19.9998 11.992 20 10.624 20 8.75V2.5H21.5V8.75ZM14 4H5.06055L14.2803 13.2197C14.5732 13.5126 14.5732 13.9874 14.2803 14.2803C13.9874 14.5732 13.5126 14.5732 13.2197 14.2803L4 5.06055V14H2.5V2.5H14V4Z" fill="currentColor"/>
</svg>
