<svg width="24" height="24" viewBox="0 0 24 24" fill="none" xmlns="http://www.w3.org/2000/svg">
<path d="M19.6 12.4V3.6C19.6 3.15817 19.9582 2.8 20.4 2.8C20.8419 2.8 21.2 3.15817 21.2 3.6V12.4C21.2 17.2601 17.2602 21.2 12.4 21.2H3.60005C3.15822 21.2 2.80005 20.8418 2.80005 20.4C2.80005 19.9582 3.15822 19.6 3.60005 19.6H12.4C16.3765 19.6 19.6 16.3764 19.6 12.4Z" fill="black"/>
<path d="M13.434 14.5656L4.94542 6.07698V11.6366C4.94542 12.0784 4.58733 12.4365 4.1455 12.4365C3.70374 12.4364 3.34559 12.0784 3.34559 11.6366L3.34559 4.1457L3.36106 3.98881C3.39178 3.83507 3.46736 3.69253 3.57982 3.58001C3.72982 3.43002 3.93338 3.34582 4.1455 3.34578H11.6364L11.7977 3.36125C12.1625 3.4357 12.4363 3.75897 12.4363 4.1457C12.4363 4.53194 12.1629 4.85412 11.7988 4.92904L11.6364 4.94561H6.07679L14.5654 13.4342C14.8778 13.7466 14.8778 14.2532 14.5654 14.5656C14.253 14.8779 13.7464 14.878 13.434 14.5656Z" fill="black"/>
</svg>
